<svg width="111" height="121" viewBox="0 0 111 121" fill="none" xmlns="http://www.w3.org/2000/svg">
<path d="M107.215 67.6474C104.527 62.0859 100.392 57.3189 95.2564 53.7954C88.398 57.1116 80.7124 58.4588 73.0959 57.6643C73.0959 57.6643 49.867 59.0806 32.5314 31.8603C35.2886 35.2801 38.6661 38.1472 42.5261 40.3235C45.49 42.3615 48.833 43.8124 52.3484 44.6069C55.3468 45.1596 61.0678 45.0905 63.0323 42.327C65.2035 39.2181 62.1018 33.8639 60.6543 31.0658C56.4152 22.9481 50.5218 13.7941 51.2455 4.19105C51.2455 4.19105 65.4793 34.5893 81.7809 40.3926C86.3301 41.6016 91.0517 41.8779 95.7044 41.1871L108.628 7.16178C96.7039 3.94924 84.5035 1.87664 72.1653 0.90942C53.6236 -0.679578 30.2568 -0.748666 15.2993 11.9288C11.1981 15.7631 8.09629 20.4265 6.16629 25.608C5.51147 27.3352 4.99452 29.166 4.61541 30.9968C3.58149 35.971 3.82273 41.118 5.30469 46.0232C6.78665 50.8938 9.47485 55.3153 13.1281 58.9424C14.1965 58.5279 15.2993 58.1825 16.4022 57.9061C21.5374 56.4207 26.9827 55.9026 32.3591 56.4207C32.3591 56.4207 55.5536 55.0045 72.8891 82.2247C70.1664 78.8049 66.7544 75.9378 62.8944 73.7615C59.965 71.7235 56.622 70.2727 53.1066 69.4782C50.1082 68.9255 44.3871 68.9945 42.4227 71.758C40.217 74.8669 43.3187 80.2212 44.8007 83.0192C49.0398 91.1369 54.8987 100.325 54.2095 109.894C54.2095 109.894 39.9413 79.4958 23.6397 73.6925C21.2616 73.0361 18.8491 72.6562 16.4022 72.5525C15.1615 72.4834 13.9207 72.518 12.68 72.5871L5.06344 96.1802L1.96165 105.783L0.51416 110.274C0.51416 110.274 1.03112 110.654 1.96165 110.965C2.71987 111.207 3.78826 111.552 5.06344 111.898C8.16522 112.761 12.4043 113.832 16.4022 114.799C22.0199 116.146 27.0861 117.321 27.7754 117.424C45.0764 120.637 63.9973 121.915 80.9192 116.319C94.8773 111.725 109.973 100.947 110.627 85.4372C111.11 79.323 109.904 73.1743 107.215 67.6474ZM45.0075 29.4768C45.8002 28.5442 46.8686 27.8188 48.0748 27.4733C49.2466 27.0934 50.5563 27.0933 51.7625 27.4388C52.9343 27.7842 54.0371 28.4405 54.8298 29.4078C55.6225 30.3404 56.1395 31.4804 56.2773 32.7239C56.4152 33.933 56.1739 35.1765 55.588 36.2474C55.0021 37.3528 54.106 38.2163 53.0032 38.8381C51.9003 39.4254 50.6596 39.6672 49.3845 39.5635C48.1437 39.4599 46.972 38.9763 45.9725 38.2163C44.6629 37.18 43.8357 35.6947 43.6634 34.0366C43.4566 32.413 43.9736 30.7895 45.0075 29.4768ZM61.5848 82.4665C61.3436 83.2264 60.9644 83.9519 60.4475 84.6082C59.6548 85.5409 58.5864 86.2663 57.4146 86.6117C56.2084 86.9917 54.9332 86.9917 53.727 86.6462C52.5207 86.3008 51.4523 85.6445 50.6252 84.6773C49.8325 83.7446 49.3155 82.6047 49.1777 81.3611C49.0398 80.1521 49.2811 78.9085 49.867 77.8377C50.4528 76.7323 51.3489 75.8341 52.4518 75.2469C53.5546 74.6597 54.8298 74.4179 56.0705 74.5215C57.3112 74.6251 58.5175 75.1087 59.4825 75.8687C60.1373 76.3868 60.6887 77.0086 61.0678 77.734C61.4814 78.4595 61.7227 79.2194 61.8261 80.0485C61.895 80.843 61.8261 81.672 61.5848 82.4665Z" fill="black"/>
</svg>
