<svg width="128" height="31" viewBox="0 0 128 31" fill="none" xmlns="http://www.w3.org/2000/svg">
<path d="M23.4806 13.5975C21.7786 14.4367 19.8736 14.7759 17.9866 14.5756C17.9866 14.5756 12.2356 14.9346 7.93659 8.03055C8.61767 8.89811 9.45887 9.62696 10.4146 10.1776C11.1454 10.6966 11.9715 11.066 12.8456 11.2646C13.5896 11.4066 15.0056 11.3866 15.4896 10.6866C16.0346 9.89756 15.2666 8.54156 14.9036 7.83356C13.8506 5.77556 12.3966 3.44855 12.5726 1.01755C12.5726 1.01755 16.1036 8.72755 20.1446 10.1986C21.2665 10.5063 22.4406 10.5745 23.5906 10.3986L26.7906 1.77155C23.8364 0.960217 20.8124 0.428866 17.7586 0.184544C13.1586 -0.215456 7.36858 -0.233456 3.66458 2.97754C2.30661 4.27928 1.38122 5.96671 1.01358 7.81156C0.758747 9.07625 0.817824 10.3841 1.18567 11.6207C1.55352 12.8573 2.21891 13.9848 3.12357 14.9045C4.64145 14.323 6.27388 14.1029 7.89157 14.2615C7.89157 14.2615 13.6426 13.9026 17.9416 20.8066C17.2604 19.9394 16.4192 19.2109 15.4636 18.6606C14.7328 18.1415 13.9066 17.7721 13.0326 17.5736C12.2886 17.4316 10.8736 17.4516 10.3886 18.1516C9.84358 18.9406 10.6116 20.2966 10.9746 21.0046C12.0276 23.0626 13.4816 25.3896 13.3056 27.8206C13.3056 27.8206 9.77458 20.1106 5.73358 18.6396C4.85043 18.396 3.93293 18.3006 3.01856 18.3575L0.000583083 27.9135C-0.0704169 28.1375 6.36558 29.6575 6.75458 29.7315C11.0456 30.5415 15.7306 30.8706 19.9316 29.4506C23.3846 28.2836 27.1256 25.5505 27.2916 21.6195C27.4052 20.0669 27.1138 18.5114 26.4457 17.1052C25.7777 15.699 24.7559 14.4903 23.4806 13.5975ZM11.0296 7.43256C11.2246 7.19011 11.4871 7.01094 11.784 6.91773C12.0809 6.82451 12.3987 6.82144 12.6973 6.90888C12.9959 6.99632 13.2619 7.17035 13.4616 7.40897C13.6613 7.64759 13.7857 7.94008 13.8191 8.24942C13.8526 8.55877 13.7935 8.8711 13.6494 9.14689C13.5054 9.42267 13.2827 9.64951 13.0097 9.79874C12.7367 9.94798 12.4255 10.0129 12.1156 9.98526C11.8057 9.95764 11.5109 9.83873 11.2686 9.64356C10.9438 9.38216 10.7363 9.00249 10.6914 8.58805C10.6466 8.17361 10.7683 7.75834 11.0296 7.43357V7.43256ZM14.8536 21.4045C14.6586 21.647 14.396 21.8262 14.0992 21.9194C13.8023 22.0126 13.4844 22.0157 13.1858 21.9282C12.8872 21.8408 12.6213 21.6668 12.4216 21.4281C12.2219 21.1895 12.0974 20.897 12.064 20.5877C12.0306 20.2783 12.0896 19.966 12.2337 19.6902C12.3778 19.4144 12.6004 19.1876 12.8734 19.0384C13.1465 18.8891 13.4576 18.8242 13.7676 18.8518C14.0775 18.8795 14.3722 18.9984 14.6146 19.1935C14.7755 19.323 14.9093 19.4829 15.0085 19.6641C15.1076 19.8453 15.17 20.0442 15.1922 20.2495C15.2144 20.4549 15.1959 20.6625 15.1378 20.8607C15.0797 21.0589 14.9831 21.2437 14.8536 21.4045Z" fill="url(#paint0_linear_6_92)"/>
<path d="M41.8134 12.8184C41.1119 12.684 40.4315 12.4563 39.7904 12.1414C39.6556 12.0628 39.5439 11.9498 39.467 11.814C39.39 11.6782 39.3505 11.5244 39.3524 11.3683C39.3475 11.2192 39.3774 11.071 39.4397 10.9355C39.5021 10.7999 39.5951 10.6807 39.7114 10.5873C39.9934 10.3772 40.3403 10.2728 40.6914 10.2924C41.7862 10.3135 42.8424 10.7008 43.6914 11.3923L44.9504 9.57635C44.376 9.09678 43.7165 8.7294 43.0064 8.49334C42.2894 8.24316 41.5358 8.1141 40.7764 8.11139C39.7592 8.07428 38.7586 8.37684 37.9324 8.97137C37.5575 9.25525 37.2577 9.62657 37.0591 10.0529C36.8606 10.4793 36.7694 10.9477 36.7934 11.4174C36.7566 11.848 36.8185 12.2814 36.9744 12.6844C37.1304 13.0875 37.3763 13.4497 37.6934 13.7433C38.5424 14.3462 39.5132 14.7558 40.5374 14.9434C41.1133 15.0533 41.6675 15.2559 42.1784 15.5433C42.3096 15.6306 42.4164 15.7499 42.4889 15.8898C42.5613 16.0298 42.5969 16.1859 42.5924 16.3434C42.598 16.4985 42.5654 16.6526 42.4974 16.7921C42.4294 16.9316 42.3281 17.0522 42.2024 17.1434C41.8859 17.3565 41.5084 17.46 41.1274 17.4384C39.8639 17.3304 38.6816 16.7705 37.7974 15.8614L36.3154 17.6774C37.5873 18.9267 39.2967 19.63 41.0794 19.6374C42.144 19.6883 43.1918 19.3579 44.0344 18.7054C44.3965 18.4147 44.6863 18.0442 44.8811 17.6227C45.076 17.2013 45.1705 16.7405 45.1574 16.2764C45.1862 15.8558 45.1227 15.434 44.9714 15.0405C44.8201 14.647 44.5846 14.2913 44.2814 13.9983C43.5667 13.4105 42.7197 13.0055 41.8134 12.8184Z" fill="black"/>
<path d="M52.0173 10.3124C51.5318 10.3082 51.0505 10.4037 50.6033 10.5929C50.1561 10.7821 49.7525 11.061 49.4173 11.4124V10.4564H47.0273V22.1184H49.4173V17.8964C49.7039 18.2959 50.0837 18.6193 50.5238 18.8386C50.9639 19.0578 51.4508 19.1662 51.9423 19.1544C52.464 19.1523 52.9791 19.0372 53.4521 18.8171C53.925 18.5971 54.3448 18.2771 54.6823 17.8794C55.469 17.0145 55.8888 15.8779 55.8533 14.7094C55.8916 13.5476 55.4709 12.4174 54.6823 11.5634C54.3525 11.1774 53.9442 10.8662 53.4847 10.6505C53.0252 10.4348 52.5249 10.3196 52.0173 10.3124ZM52.8303 16.4544C52.6496 16.6614 52.4267 16.8274 52.1767 16.9414C51.9266 17.0554 51.6551 17.1147 51.3803 17.1154C51.1109 17.117 50.8446 17.0585 50.6007 16.9442C50.3567 16.8298 50.1414 16.6625 49.9703 16.4544C49.5714 15.98 49.3642 15.3737 49.3893 14.7544C49.3668 14.1242 49.5732 13.5071 49.9703 13.0173C50.139 12.8003 50.3554 12.6249 50.6026 12.5048C50.8499 12.3846 51.1214 12.3229 51.3963 12.3243C51.6751 12.3247 51.9502 12.3877 52.2012 12.5089C52.4522 12.6301 52.6727 12.8063 52.8463 13.0244C53.2558 13.5087 53.4713 14.1275 53.4513 14.7614C53.4744 15.3855 53.2509 15.9936 52.8293 16.4544H52.8303Z" fill="black"/>
<path d="M60.9395 10.5724C60.3403 10.5548 59.7438 10.6595 59.1864 10.8801C58.629 11.1007 58.1224 11.4325 57.6975 11.8554C56.8708 12.6924 56.4072 13.8214 56.4072 14.9979C56.4072 16.1743 56.8708 17.3034 57.6975 18.1404C58.5784 18.9595 59.7366 19.4147 60.9395 19.4147C62.1423 19.4147 63.3006 18.9595 64.1815 18.1404C65.0082 17.3034 65.4717 16.1743 65.4717 14.9979C65.4717 13.8214 65.0082 12.6924 64.1815 11.8554C63.7566 11.4325 63.25 11.1007 62.6926 10.8801C62.1352 10.6595 61.5387 10.5548 60.9395 10.5724ZM62.4695 16.7144C62.2731 16.9231 62.0361 17.0894 61.7731 17.2031C61.5101 17.3168 61.2265 17.3754 60.94 17.3754C60.6534 17.3754 60.3699 17.3168 60.1069 17.2031C59.8438 17.0894 59.6068 16.9231 59.4105 16.7144C58.9992 16.2409 58.7845 15.6281 58.8105 15.0014C58.7855 14.3725 58.9999 13.7575 59.4105 13.2804C59.6055 13.0695 59.8421 12.9011 60.1053 12.786C60.3685 12.6708 60.6527 12.6114 60.94 12.6114C61.2273 12.6114 61.5115 12.6708 61.7747 12.786C62.0379 12.9011 62.2745 13.0695 62.4695 13.2804C62.88 13.7575 63.0944 14.3725 63.0695 15.0014C63.0952 15.6282 62.8801 16.241 62.4685 16.7144H62.4695Z" fill="black"/>
<path d="M70.4515 10.9601C70.0152 11.1843 69.6237 11.4866 69.2965 11.8521V10.7211H66.9065V19.2881H69.2965V15.576C69.2626 14.8712 69.4462 14.173 69.8225 13.576C70.0015 13.3247 70.2419 13.1233 70.5207 12.991C70.7995 12.8586 71.1075 12.7998 71.4155 12.8201H71.8775L71.8615 10.5731C71.3676 10.5895 70.8845 10.7221 70.4515 10.9601Z" fill="black"/>
<path d="M76.9438 17.2009C76.8286 17.2012 76.7147 17.1764 76.61 17.1282C76.5054 17.08 76.4125 17.0096 76.3377 16.9219C76.157 16.7064 76.0658 16.4297 76.0828 16.1489V12.3089H78.1537V10.5879H76.0828V8.02289H73.6768V10.5879H72.6768V12.3089H73.6768V16.2599C73.6523 16.6563 73.7109 17.0534 73.8488 17.4258C73.9867 17.7983 74.2008 18.1379 74.4774 18.4228C74.7541 18.7077 75.0872 18.9318 75.4554 19.0806C75.8236 19.2294 76.2188 19.2996 76.6158 19.2869C77.5008 19.2614 78.3422 18.8966 78.9658 18.2679L78.0738 16.5949C77.9485 16.7798 77.7802 16.9316 77.5834 17.0371C77.3866 17.1427 77.1671 17.1989 76.9438 17.2009Z" fill="black"/>
<path d="M83.5334 15.7924L81.4464 10.4553H78.8975C81.1061 16.0313 82.2108 18.9417 82.2115 19.1863C82.2091 19.4372 82.1252 19.6804 81.9724 19.8793C81.911 19.9767 81.8264 20.0574 81.7263 20.1143C81.6262 20.1711 81.5135 20.2024 81.3984 20.2053C81.1626 20.194 80.9314 20.1362 80.7181 20.0351C80.5047 19.934 80.3135 19.7917 80.1555 19.6163L79.0714 21.3843C79.7023 22.0168 80.5524 22.3821 81.4455 22.4044C82.0313 22.4101 82.6054 22.2409 83.0945 21.9183C83.5918 21.5898 83.9734 21.1134 84.1855 20.5563L88.1685 10.4564H85.6175L83.5334 15.7924Z" fill="black"/>
<path d="M95.3755 14.483L92.5075 8.36505H89.1455V19.501H91.6315V12.494L94.6315 18.58H96.1115L99.1225 12.494V19.504H101.607V8.36505H98.2615L95.3755 14.483Z" fill="black"/>
<path d="M116.187 17.5421C116.072 17.5422 115.959 17.5173 115.854 17.4691C115.75 17.4209 115.657 17.3507 115.582 17.2631C115.402 17.0475 115.31 16.7709 115.327 16.4901V12.6501H117.398V10.9291H115.327V8.36407H112.921V10.9291H111.921V12.6501H112.921V16.6011C112.897 16.9975 112.956 17.3946 113.093 17.767C113.231 18.1395 113.445 18.479 113.722 18.764C113.999 19.0489 114.332 19.273 114.7 19.4218C115.068 19.5706 115.463 19.6408 115.86 19.6281C116.745 19.6026 117.587 19.2378 118.21 18.6091L117.318 16.9361C117.193 17.1211 117.025 17.273 116.828 17.3785C116.631 17.4841 116.411 17.5402 116.187 17.5421Z" fill="black"/>
<path d="M127.607 14.5714C127.634 14.0213 127.537 13.4723 127.324 12.9648C127.11 12.4573 126.785 12.0043 126.372 11.6394C125.539 10.9248 124.47 10.5446 123.372 10.5724C122.233 10.5581 121.133 10.9886 120.305 11.7724C119.871 12.183 119.53 12.6823 119.306 13.2364C119.082 13.7905 118.98 14.3864 119.007 14.9834C118.979 15.5807 119.078 16.1771 119.298 16.7332C119.518 17.2893 119.853 17.7924 120.281 18.2094C121.156 19.0198 122.316 19.4513 123.507 19.4094C124.777 19.4214 126 18.9286 126.907 18.0394L125.569 16.5894C125.303 16.8673 124.98 17.0861 124.624 17.2315C124.267 17.3769 123.883 17.4457 123.498 17.4334C122.996 17.4385 122.505 17.2822 122.098 16.9874C121.904 16.857 121.738 16.6878 121.612 16.4904C121.486 16.2931 121.402 16.0718 121.365 15.8404H127.607V14.5714ZM121.425 14.1414C121.451 13.9101 121.525 13.687 121.643 13.4865C121.761 13.2861 121.921 13.1129 122.11 12.9784C122.485 12.6974 122.942 12.5465 123.41 12.5484C123.847 12.5371 124.273 12.6842 124.61 12.9624C124.779 13.1112 124.917 13.292 125.016 13.4943C125.114 13.6967 125.171 13.9166 125.184 14.1414H121.425Z" fill="black"/>
<path d="M108.815 10.9914C108.207 10.6676 107.526 10.5034 106.838 10.5144C106.274 10.5005 105.714 10.608 105.195 10.8293C104.677 11.0507 104.211 11.3808 103.831 11.7974C103.061 12.6627 102.635 13.7811 102.635 14.9399C102.635 16.0987 103.061 17.2171 103.831 18.0824C104.213 18.497 104.678 18.8253 105.197 19.0452C105.715 19.2652 106.275 19.3716 106.838 19.3574C107.526 19.3684 108.206 19.2053 108.815 18.8834V19.3574H111.039V10.6404H108.815V10.9914ZM108.255 16.6554C108.082 16.8625 107.865 17.029 107.62 17.1432C107.375 17.2575 107.108 17.3167 106.838 17.3167C106.567 17.3167 106.3 17.2575 106.055 17.1432C105.81 17.029 105.593 16.8625 105.419 16.6554C105.035 16.1696 104.838 15.5614 104.865 14.9424C104.839 14.3211 105.036 13.7108 105.419 13.2214C105.592 13.0121 105.808 12.8436 106.054 12.7279C106.299 12.6122 106.566 12.5522 106.838 12.5522C107.109 12.5522 107.376 12.6122 107.621 12.7279C107.867 12.8436 108.083 13.0121 108.255 13.2214C108.639 13.7107 108.836 14.3211 108.81 14.9424C108.837 15.5618 108.64 16.1693 108.255 16.6554Z" fill="black"/>
<defs>
<linearGradient id="paint0_linear_6_92" x1="-2.8135" y1="15.2137" x2="36.7394" y2="15.2137" gradientUnits="userSpaceOnUse">
<stop/>
<stop offset="1"/>
</linearGradient>
</defs>
</svg>
